<?xml version="1.0" standalone="no"?>
<!DOCTYPE svg PUBLIC "-//W3C//DTD SVG 20010904//EN"
 "http://www.w3.org/TR/2001/REC-SVG-20010904/DTD/svg10.dtd">
<svg version="1.0" xmlns="http://www.w3.org/2000/svg"
 width="260.000000pt" height="260.000000pt" viewBox="0 0 260.000000 260.000000"
 preserveAspectRatio="xMidYMid meet">
<metadata>
Created by potrace 1.14, written by Peter Selinger 2001-2017
</metadata>
<g transform="translate(0.000000,260.000000) scale(0.100000,-0.100000)"
fill="#000000" stroke="none">
<path d="M760 2115 l0 -55 -55 0 -55 0 0 -55 0 -55 -55 0 -55 0 0 -110 0 -110
-55 0 -55 0 0 -430 0 -430 55 0 55 0 0 -110 0 -110 55 0 55 0 0 -55 0 -55 160
0 160 0 0 -55 0 -55 330 0 330 0 0 55 0 55 160 0 160 0 0 55 0 55 55 0 55 0 0
110 0 110 55 0 55 0 0 435 0 435 -55 0 -55 0 0 105 0 105 -55 0 -55 0 0 55 0
55 -55 0 -55 0 0 55 0 55 -55 0 -55 0 0 -54 0 -55 -52 -3 -53 -3 -3 -107 -3
-108 -49 0 -49 0 -3 -52 -3 -53 -215 0 -215 0 -3 53 -3 52 -49 0 -49 0 -3 108
-3 107 -52 3 -53 3 0 55 0 54 -55 0 -55 0 0 -55z m648 -1247 l3 -108 -111 0
-110 0 0 103 c0 57 3 107 7 111 4 4 52 5 107 4 l101 -3 3 -107z"/>
</g>
</svg>
